<svg height="512pt" viewBox="0 0 512 512" width="512pt" xmlns="http://www.w3.org/2000/svg"><path d="M482.367 38.414h-193.82c-16.121 0-29.188 13.07-29.188 29.191v109.633c0 16.125 13.067 29.192 29.188 29.192h68.945l-11.144 44.976c-1.45 5.86 5.293 10.274 10.082 6.598l67.136-51.57h58.801c16.121 0 29.192-13.07 29.192-29.192V67.605c0-16.12-13.07-29.19-29.192-29.19zm0 0" fill="#88dbfd"/><path d="M354.969 216.617l-8.621 34.79c-1.45 5.859 5.293 10.273 10.082 6.597l67.136-51.57H368.23zM482.367 38.414h-55.336c16.121 0 29.192 13.07 29.192 29.191v109.633c0 16.125-13.07 29.192-29.192 29.192h55.336c16.121 0 29.192-13.067 29.192-29.192V67.605c0-16.12-13.07-29.19-29.192-29.19zm0 0" fill="#5abfe9"/><path d="M341.762 122.105L366 106.363c.477-.383 1.145-.476 1.813-.476 2.859 0 6.488 3.05 6.488 6.965 0 1.62-.668 3.05-1.719 3.718l-16.793 10.88 16.793 10.874c1.05.668 1.719 2.102 1.719 3.723 0 3.91-3.63 6.965-6.489 6.965-.667 0-1.335-.098-1.812-.477l-24.238-15.742c-2.192-1.434-2.957-3.723-2.957-5.344 0-1.625.765-3.914 2.957-5.344zm86.164-36.832c0 .575-.098 1.243-.383 1.813l-33.586 68.797c-.668 1.43-2.48 2.387-4.293 2.387-3.246 0-5.344-2.672-5.344-5.06 0-.57.192-1.237.477-1.812l33.492-68.796c.762-1.622 2.29-2.383 4.008-2.383 2.672 0 5.629 2 5.629 5.054zm42.558 47.52l-24.234 15.742c-.477.38-1.145.477-1.813.477-2.863 0-6.492-3.051-6.492-6.965 0-1.621.668-3.055 1.72-3.723l16.792-10.875-16.793-10.879c-1.05-.668-1.719-2.097-1.719-3.718 0-3.915 3.63-6.965 6.493-6.965.667 0 1.335.093 1.812.476l24.234 15.742a6.482 6.482 0 012.957 5.344c0 1.621-.761 3.91-2.957 5.344zm0 0" fill="#f2f2f2"/><path d="M407.094 384.195c-1.453-24.77-17.18-44.957-40.582-55.918-28.649-13.41-106.668-33.707-106.668-33.707a15.907 15.907 0 01-13.004-15.644v-44.602h-84.82v44.602a15.914 15.914 0 01-13.008 15.644s-78.016 20.297-106.664 33.707C18.94 339.238 3.215 359.426 1.762 384.195L0 490.52C-.14 502.34 9.402 512 21.227 512h366.402c11.824 0 21.367-9.66 21.226-21.48zm0 0" fill="#fcc18b"/><path d="M407.094 384.195c-1.453-24.77-17.18-44.957-40.582-55.918-28.649-13.41-106.668-33.707-106.668-33.707a15.907 15.907 0 01-13.004-15.644v-44.602h-55.336v71.348a15.91 15.91 0 0013.004 15.644s78.02 20.297 106.668 33.707c23.402 10.961 39.129 31.149 40.582 55.918L353.43 512h34.199c11.824 0 21.367-9.66 21.226-21.48zM116.5 121.426h-11.137a17.468 17.468 0 00-10.71 3.652c-5.145 3.977-7.4 10.664-6.239 17.063l4.375 24.074c3.39 17.847 23.738 9.691 23.738 9.691zm0 0" fill="#eaab65"/><path d="M292.36 121.426h11.132a17.45 17.45 0 0110.711 3.652c5.145 3.977 7.402 10.664 6.238 17.063l-4.37 24.074c-3.395 17.847-23.739 9.691-23.739 9.691zm0 0" fill="#fcc18b"/><path d="M266.145 29.922c-14.48-13.387-34.833-25.07-61.715-25.395-26.887.325-47.239 12.008-61.72 25.395C124.247 47 114.239 72.355 114.239 98.527l.028 91.246c0 43.137 56.07 87.813 90.164 87.813s90.164-44.676 90.164-87.813l.023-91.246c0-26.168-10.004-51.527-28.472-68.605zm0 0" fill="#fcc18b"/><path d="M266.145 29.922c-14.48-13.387-34.833-25.07-61.715-25.395-10.14.121-19.352 1.864-27.668 4.7 13.73 4.683 25.027 12.359 34.047 20.695C229.277 47 239.28 72.359 239.28 98.527l-.023 91.246c0 32.641-32.102 66.157-62.496 80.536 9.773 4.625 19.37 7.277 27.668 7.277 34.093 0 90.164-44.676 90.164-87.813l.023-91.246c0-26.168-10.004-51.527-28.472-68.605zm0 0" fill="#eaab65"/><path d="M260.219 0H148.637c-28.711 0-51.985 23.273-51.985 51.984v71.73s14.317-.323 23.516 8.782c1.914 1.895 5.168.512 5.168-2.184V74.09c0-12.688 10.289-22.977 22.98-22.977h20.88a23.74 23.74 0 0115.023 5.36l2.047 1.672a28.692 28.692 0 0036.324 0l2.05-1.672a23.74 23.74 0 0115.024-5.36h20.879c12.687 0 22.977 10.29 22.977 22.977v56.222c0 2.696 3.257 4.079 5.171 2.184 9.2-9.105 23.512-8.781 23.512-8.781v-71.73C312.203 23.272 288.93 0 260.22 0zm0 0" fill="#426175"/><path d="M260.219 0h-19.301c9.715 11.434 15.805 28.605 15.96 51.113h3.665c12.687 0 22.977 10.29 22.977 22.98v56.22c0 2.695 3.257 4.082 5.171 2.183 9.2-9.101 23.512-8.777 23.512-8.777V51.984C312.203 23.274 288.93 0 260.22 0zm0 0" fill="#2c4456"/><path d="M366.512 328.281c-16.672-7.804-50.059-17.941-75.063-25.05l-5.406 2.046a230.408 230.408 0 01-163.227 0l-5.41-2.047c-25.004 7.11-58.386 17.247-75.058 25.051-23.407 10.957-39.133 31.145-40.586 55.914L0 490.52C-.14 502.34 9.402 512 21.227 512h366.402c11.824 0 21.367-9.66 21.226-21.48l-1.761-106.325c-1.453-24.77-17.18-44.957-40.582-55.914zm0 0" fill="#33bca5"/><path d="M334.512 485.355H70.472c-8.03 0-14.695-6.207-15.269-14.218L44.406 319.62c-.633-8.86 6.383-16.394 15.266-16.394h285.64c8.88 0 15.899 7.535 15.266 16.394l-10.797 151.52c-.574 8.007-7.238 14.214-15.27 14.214zm0 0" fill="#f2f2f2"/><path d="M345.313 303.23H289.57c8.883 0 15.899 7.536 15.266 16.395l-11.813 165.73h41.489c8.031 0 14.695-6.207 15.27-14.218l10.796-151.516c.633-8.855-6.383-16.39-15.265-16.39zM353.45 512H55.41c-7.355 0-13.32-5.965-13.32-13.32 0-7.36 5.965-13.32 13.32-13.32h298.04c7.355 0 13.32 5.96 13.32 13.32 0 7.355-5.965 13.32-13.32 13.32zm0 0" fill="#cdd6df"/><path d="M225.75 400.402c0 11.778-9.547 21.32-21.32 21.32-11.778 0-21.32-9.542-21.32-21.32 0-11.773 9.542-21.316 21.32-21.316 11.773 0 21.32 9.543 21.32 21.316zm0 0" fill="#fff"/></svg>